<svg width="16" height="16" viewBox="0 0 16 16" fill="none" xmlns="http://www.w3.org/2000/svg">
<rect width="16" height="16" rx="3" fill="#1A1412"/>
<path d="M12.952 4H14.512V12.4H12.952V8.9V4ZM8.608 12.4H7.048V4H8.608V9.9V12.4ZM12.952 9.9H8.608V8.9H12.952V9.9Z" fill="#74CFFF"/>
<path d="M3.592 12.52C3.056 12.52 2.56 12.416 2.104 12.208C1.81954 12.0759 1.56733 11.9068 1.34738 11.7005C1.12243 11.4896 1.13842 11.1415 1.33558 10.9044C1.61564 10.5676 2.13245 10.6006 2.48735 10.8574C2.53881 10.8946 2.59103 10.9288 2.644 10.96C2.924 11.12 3.228 11.2 3.556 11.2C4.428 11.2 4.864 10.684 4.864 9.652V5.308H1.876V4H6.424V9.568C6.424 10.56 6.18 11.3 5.692 11.788C5.212 12.276 4.512 12.52 3.592 12.52Z" fill="#74CFFF"/>
</svg>
